<svg width="234" height="234" viewBox="0 0 234 234" fill="none" xmlns="http://www.w3.org/2000/svg">
<rect width="234" height="234" fill="black"/>
<path d="M170.667 78.6667H48V94H94.6389C96.2302 103.419 100.714 112.109 107.469 118.864C114.224 125.619 122.914 130.103 132.333 131.694V170.667H63.3333V140H86.3333V124.667H48V186H147.667V131.694C156.226 130.253 164.202 126.413 170.667 120.62V186H186V78.6667H170.667ZM147.667 116.037C143.766 117.046 139.705 117.275 135.715 116.713C131.725 116.152 127.885 114.809 124.415 112.762C120.944 110.716 117.911 108.005 115.489 104.786C113.066 101.567 111.301 97.9015 110.296 94H169.704C168.328 99.3039 165.559 104.144 161.685 108.018C157.81 111.893 152.971 114.661 147.667 116.037V116.037Z" fill="white"/>
<path d="M165.428 48H147.667H132.333H114.572H86.3333H78.6667H63.3333H48V63.3333H63.3333H78.6667H86.3333H100.15H119.717H132.333H147.667H160.283H170.667H179.85H186V48H170.667H165.428Z" fill="white"/>
</svg>
