<svg width="234" height="234" viewBox="0 0 234 234" fill="none" xmlns="http://www.w3.org/2000/svg">
<rect width="234" height="234" fill="black"/>
<path d="M147.428 86H129.667H114.333H96.572H68.3333H60.6667H45.3333H30V101.333H45.3333H60.6667H68.3333H82.15H101.717H114.333H129.667H142.283H152.667H161.85H168V86H152.667H147.428Z" fill="white"/>
<path d="M147.428 117H129.667H114.333H96.572H68.3333H60.6667H45.3333H30V132.333H45.3333H60.6667H68.3333H82.15H101.717H114.333H129.667H142.283H152.667H161.85H168V117H152.667H147.428Z" fill="white"/>
<path d="M205 180.72L205 157.167L205 136.833L205 113.28L205 75.8333L205 65.6667L205 45.3333L205 25L190 25L190 45.3333L190 65.6667L190 75.8333L190 94.1554L190 120.103L190 136.833L190 157.167L190 173.897L190 187.667L190 199.845L190 208L205 208L205 187.667L205 180.72Z" fill="white"/>
<path d="M57.2106 196.346L73.9944 186.656L88.4848 178.29L105.269 168.6L131.954 153.193L139.199 149.01L153.688 140.645L168.178 132.279L160.512 119L146.022 127.366L131.532 135.731L124.287 139.914L111.231 147.452L92.7401 158.128L80.8182 165.011L66.3278 173.377L54.4059 180.26L44.5931 185.926L35.9153 190.936L30.1037 194.291L37.7703 207.57L52.2598 199.205L57.2106 196.346Z" fill="white"/>
<path d="M56.0877 209L78.6107 209L98.056 209L120.579 209L156.389 209L166.111 209L185.556 209L205 209L205 194L185.556 194L166.111 194L156.389 194L138.868 194L114.055 194L98.056 194L78.6107 194L62.6121 194L49.444 194L37.7989 194L30 194L30 209L49.444 209L56.0877 209Z" fill="white"/>
<path fill-rule="evenodd" clip-rule="evenodd" d="M167.649 101C167.881 98.6982 168 96.363 168 94C168 55.8924 137.108 25 99 25C60.8924 25 30 55.8924 30 94C30 96.363 30.1188 98.6982 30.3507 101H47.4671C47.1591 98.7105 47 96.3738 47 94C47 65.2812 70.2812 42 99 42C127.719 42 151 65.2812 151 94C151 96.3738 150.841 98.7105 150.533 101H167.649Z" fill="white"/>
</svg>
